<svg version="1.1" id="Layer_1" xmlns="http://www.w3.org/2000/svg" xmlns:xlink="http://www.w3.org/1999/xlink" x="0px" y="0px"
	 width="100%" viewBox="0 0 784 640" enable-background="new 0 0 784 640" xml:space="preserve">
<path fill="#000000" opacity="1.000000" stroke="none" 
	d="
M229.101501,400.917694 
	C224.297775,409.391449 221.582535,418.341064 218.264450,427.021118 
	C212.581039,441.888702 206.159805,456.557129 204.188477,472.588104 
	C203.941650,474.595306 203.202316,476.485687 201.670059,477.911255 
	C199.856796,479.598358 197.664307,480.462738 195.253494,479.743408 
	C192.857681,479.028534 193.000183,476.734131 192.750229,474.769836 
	C191.495514,464.909943 189.463669,455.127594 188.304413,445.310669 
	C186.740997,432.071014 182.989090,419.368103 180.315430,406.438049 
	C178.683578,398.546234 177.711563,390.801727 177.338333,382.835907 
	C176.944122,374.422150 180.066345,371.827972 188.019455,374.016724 
	C196.827621,376.440765 205.744263,378.422119 214.424973,381.365662 
	C219.849319,383.204956 221.290390,381.614899 223.728851,376.304260 
	C233.773438,354.428436 239.403366,330.666870 252.115784,309.942383 
	C253.812607,307.176147 253.660721,304.968048 251.123642,302.473938 
	C243.777130,295.251953 236.755524,287.700806 229.529160,280.354797 
	C222.719208,273.432190 224.864670,265.618530 234.757919,259.923462 
	C252.214935,249.874298 270.836334,242.957367 290.391510,238.392990 
	C291.201416,238.203949 292.033661,237.830399 292.827179,237.894318 
	C302.491974,238.673050 309.411591,233.356384 316.325989,227.696350 
	C325.308563,220.343307 335.449219,215.158768 346.788055,212.365753 
	C351.831665,211.123398 356.724548,212.288589 361.666290,212.821594 
	C378.014801,214.584854 394.138763,216.888214 409.230927,224.337555 
	C415.244873,227.306000 422.179718,228.467941 428.337769,231.506943 
	C446.016022,240.231232 462.561920,250.745285 477.486938,263.593536 
	C492.364716,276.401123 506.385040,290.297546 517.720032,306.284271 
	C526.515564,318.689270 536.102661,330.752075 542.549866,344.723755 
	C543.991028,347.846893 546.190125,349.405182 549.497437,349.430908 
	C567.950317,349.574402 586.403442,349.713196 604.856750,349.764832 
	C608.677368,349.775513 612.506348,349.503082 616.318787,349.201416 
	C627.786438,348.294067 637.110657,354.195129 646.744812,358.904388 
	C650.022400,360.506470 652.060669,363.754242 651.016296,367.664612 
	C650.006287,371.446014 646.905701,372.479126 643.223511,372.469147 
	C619.897278,372.406006 596.570679,372.357056 573.244507,372.415497 
	C566.753296,372.431763 560.262939,372.824585 553.772339,373.049500 
	C550.624573,373.158539 548.357422,374.401337 546.140442,376.930359 
	C540.643799,383.200684 534.162231,388.343445 526.471680,391.913940 
	C522.419128,393.795441 518.342957,395.910889 514.844727,398.646210 
	C505.678467,405.813507 494.850647,408.397095 483.839569,409.967773 
	C472.120544,411.639496 460.733673,414.942169 449.000336,416.386536 
	C435.637451,418.031525 422.253418,419.535675 408.798981,420.157257 
	C402.933289,420.428223 401.350037,422.025726 402.588959,427.825897 
	C404.395172,436.281952 406.238312,444.704071 406.802887,453.386047 
	C407.003296,456.467987 406.323761,458.116150 403.380219,458.946442 
	C399.635162,460.002808 396.107330,460.285156 392.158264,459.111359 
	C381.776764,456.025604 371.541290,452.811554 362.184174,447.115021 
	C354.340759,442.340057 353.276093,436.196869 359.783783,429.687317 
	C361.776428,427.694092 364.097198,426.032959 366.199921,424.144287 
	C367.636078,422.854340 369.577332,421.856293 369.437897,419.173431 
	C366.653412,417.728149 363.445129,417.303497 360.436523,417.496521 
	C341.681061,418.699585 323.290558,415.678070 304.851624,413.105408 
	C296.130737,411.888641 295.917084,412.339569 292.680573,420.467407 
	C289.905060,427.437653 289.419647,435.029602 286.217896,441.854156 
	C284.763672,444.953796 283.061676,447.137848 279.305817,447.369751 
	C275.449768,447.607849 274.271179,444.742889 273.511963,442.218323 
	C271.222687,434.606415 268.428711,427.093018 267.674774,419.088074 
	C267.414246,416.322021 267.992004,413.763306 269.895508,411.647339 
	C272.589172,408.652985 270.817047,406.742218 267.979828,406.386383 
	C260.666962,405.469269 253.892136,402.341431 246.613541,401.519440 
	C243.122406,401.125214 239.701248,400.621857 236.317719,399.670776 
	C233.917526,398.996063 231.397552,398.365631 229.101501,400.917694 
M515.290588,332.160675 
	C511.735748,326.759338 508.533447,321.080139 504.545502,316.020142 
	C498.176575,307.939026 491.511139,300.125366 484.238525,292.747925 
	C472.281891,280.618988 459.863159,269.163513 445.279663,260.322571 
	C428.094299,249.904282 410.393311,240.574158 391.323425,233.821960 
	C382.582916,230.727158 374.010010,228.158234 364.717773,228.174301 
	C356.752319,228.188065 355.847260,229.248077 357.459229,237.268738 
	C357.524658,237.594482 357.619202,237.914505 357.703430,238.236343 
	C361.065033,251.083603 364.218323,263.990387 367.864624,276.756317 
	C370.171875,284.834106 373.428009,292.686737 375.875092,300.668335 
	C379.763763,313.351868 384.691437,325.630768 388.909271,338.170929 
	C391.923004,347.131012 395.253693,356.014526 398.626678,364.841278 
	C401.164215,371.481720 403.335297,378.313293 406.458496,384.731873 
	C407.566101,387.008118 409.014252,388.110565 412.049652,387.022034 
	C425.943542,382.039581 439.894928,377.200073 453.937897,372.656128 
	C464.996857,369.077667 476.111816,365.657043 487.255829,362.330414 
	C496.776978,359.488281 506.029114,355.718994 515.641113,353.053925 
	C518.167297,352.353455 520.522217,350.935425 522.851929,349.657471 
	C524.739807,348.621857 525.621277,346.658600 523.978455,345.109833 
	C520.236206,341.581757 519.103149,336.433380 515.290588,332.160675 
M274.608002,393.759857 
	C281.298950,395.922028 288.213684,396.965271 295.183350,397.453064 
	C304.500610,398.105103 313.586365,401.252838 322.932129,400.699768 
	C332.688934,400.122406 342.146790,400.862061 351.560120,403.410583 
	C355.388977,404.447205 359.374878,405.273376 363.398285,404.090851 
	C364.659393,403.720154 366.179382,403.577271 366.376068,401.898743 
	C366.529022,400.593445 365.542664,399.834503 364.600128,399.097412 
	C349.333923,387.158447 339.698334,371.676880 336.290619,352.621948 
	C335.021729,345.526794 334.360016,338.457825 336.165070,330.933929 
	C337.706146,324.510559 341.498322,319.569061 343.682220,313.726654 
	C345.439270,309.026306 348.482941,305.360870 352.292480,302.329529 
	C358.365143,297.497314 359.239929,294.422028 356.633881,287.229462 
	C353.549072,278.715424 350.504730,270.160248 347.639893,261.601379 
	C345.320129,254.671005 343.422241,247.385086 342.515259,239.904709 
	C341.619385,232.516342 335.969421,227.045288 327.682800,233.587814 
	C323.397858,236.970901 320.315643,241.863144 314.946777,243.881760 
	C308.771423,246.203629 304.817963,251.255615 300.582703,255.865204 
	C292.005127,265.200989 285.336670,275.810059 278.804810,286.701202 
	C272.593109,297.058563 266.735291,307.644775 260.947113,318.185394 
	C252.250198,334.022888 245.360718,350.846405 239.102890,367.841461 
	C235.337097,378.068634 240.704453,386.826294 251.344620,388.872467 
	C258.852875,390.316345 266.312378,392.013794 274.608002,393.759857 
M346.112213,351.445770 
	C348.461365,358.345459 349.956940,365.685760 354.363983,371.636108 
	C361.716980,381.564087 369.074829,391.599213 380.830933,397.000000 
	C385.500793,399.145355 389.756042,402.479523 395.985504,402.300140 
	C394.719696,398.276154 393.742981,394.793518 392.533203,391.393768 
	C388.386749,379.741089 383.723511,368.251984 380.074524,356.447845 
	C375.768188,342.517273 370.944550,328.780914 366.080231,315.049896 
	C365.429047,313.211670 364.954102,310.896912 362.603760,310.580383 
	C359.963928,310.224823 358.269135,312.162384 357.002106,314.103821 
	C354.556061,317.851990 352.214569,321.684540 350.087585,325.621399 
	C345.840973,333.481537 342.217438,341.512512 346.112213,351.445770 
M253.107300,275.317230 
	C254.049561,278.673126 254.922638,282.050537 255.958496,285.377289 
	C256.644897,287.581757 258.202667,289.261047 260.491913,289.541107 
	C262.560303,289.794159 263.480194,287.825012 264.674835,286.441040 
	C267.325226,283.370636 268.393829,279.436249 270.376984,276.001953 
	C273.565430,270.480469 278.392792,265.903198 279.957886,259.393158 
	C280.992950,255.087860 280.117920,253.774170 275.714752,254.445709 
	C270.101868,255.301727 265.686035,258.693573 261.000214,261.528992 
	C256.088135,264.501282 253.410950,268.764648 253.107300,275.317230 
M549.490906,363.789764 
	C553.150269,363.896271 556.849731,363.694641 560.461975,364.163910 
	C574.250854,365.955261 588.057861,364.354492 601.851257,364.600739 
	C604.721497,364.652008 606.656006,362.994965 606.741150,360.013824 
	C606.842407,356.469604 603.801392,356.661987 601.689087,356.699585 
	C594.871948,356.820831 588.058350,357.257568 581.248840,357.663818 
	C572.107300,358.209229 562.975098,358.701660 553.851318,357.390167 
	C548.507385,356.622040 543.232117,357.581573 537.952209,358.195679 
	C535.832886,358.442200 534.517151,359.842773 534.636230,361.896545 
	C534.778687,364.353729 536.929382,363.803406 538.506165,363.821136 
	C541.836731,363.858551 545.168274,363.807495 549.490906,363.789764 
M465.793823,395.966278 
	C478.159607,395.018890 489.720825,391.080322 501.120819,386.492340 
	C477.074677,389.645355 454.121216,397.700287 430.218628,401.640869 
	C433.352539,403.223938 436.375671,402.630676 439.412079,402.173798 
	C448.102570,400.866211 456.819763,399.683594 465.793823,395.966278 
M502.244049,373.631042 
	C520.150574,369.199219 520.150574,369.199219 521.705505,364.356384 
	C508.860718,369.543549 495.757538,370.414978 484.366394,377.055786 
	C490.523376,378.250458 495.737701,374.772339 502.244049,373.631042 
M616.717834,357.198242 
	C615.399170,359.399902 613.079285,361.738037 617.289917,363.371033 
	C619.301392,364.151093 621.185181,363.653503 622.788391,362.226410 
	C623.784119,361.340118 624.022827,360.160858 623.241211,359.129364 
	C621.768982,357.186523 619.894592,355.965637 616.717834,357.198242 
z"/>
<path fill="#000000" opacity="1.000000" stroke="none" 
	d="
M473.883423,130.093307 
	C474.962891,120.251495 480.734222,113.529457 488.288910,109.362877 
	C496.779022,104.680397 511.090179,105.833656 517.972229,115.527519 
	C519.794250,118.093979 521.748108,120.581566 523.385803,123.261543 
	C529.908020,133.934723 522.115723,151.660614 515.208740,157.060135 
	C505.714600,164.482147 490.579773,163.498154 481.278839,155.634140 
	C473.075775,148.698456 471.811523,140.223648 473.883423,130.093307 
M495.146088,121.852470 
	C497.287109,125.785774 501.268585,126.756233 505.097961,127.592491 
	C507.098358,128.029343 507.693542,126.108238 507.812012,124.280571 
	C507.992340,121.498566 506.448395,120.142082 504.093506,119.140633 
	C500.595032,117.652840 497.682922,118.005959 495.146088,121.852470 
z"/>
<path fill="#000000" opacity="1.000000" stroke="none" 
	d="
M587.094604,202.534744 
	C587.125916,205.795990 587.412292,208.652588 587.077209,211.434326 
	C585.840393,221.702286 577.782715,228.862015 566.279785,230.169037 
	C556.639587,231.264420 546.447266,225.706955 543.433411,216.774902 
	C537.641968,199.611038 548.846069,186.355530 565.008301,185.808945 
	C576.365173,185.424881 583.905151,191.519531 587.094604,202.534744 
M569.367249,196.333466 
	C564.182190,197.944946 564.208069,198.562134 569.400940,203.802032 
	C570.481079,204.891968 571.410828,206.368103 573.048645,204.904724 
	C574.476501,203.628967 575.463989,201.935104 574.074341,200.082306 
	C572.996643,198.645508 571.890625,197.120636 569.367249,196.333466 
z"/>
<path fill="#000000" opacity="1.000000" stroke="none" 
	d="
M599.270874,277.424927 
	C604.054199,269.938049 613.277649,270.295197 621.695984,273.432068 
	C628.184326,275.849823 632.023132,284.332703 630.999695,292.718048 
	C630.186584,299.379791 625.118652,304.023010 617.004456,305.540527 
	C607.119080,307.389221 599.501526,304.618378 596.530029,296.755188 
	C594.117310,290.370422 595.258911,283.686157 599.270874,277.424927 
M617.696472,284.563263 
	C617.111267,282.725800 616.318787,280.847961 613.957825,281.747650 
	C612.464783,282.316620 612.467957,283.990509 613.346375,285.159973 
	C614.623596,286.860321 616.181152,287.516907 617.696472,284.563263 
z"/>
<path fill="#000000" opacity="1.000000" stroke="none" 
	d="
M410.288513,287.717834 
	C403.567505,289.331696 397.161041,291.231781 391.521423,285.963898 
	C386.997375,281.738037 386.285370,273.609863 389.715912,265.878906 
	C391.718597,261.365692 398.110443,257.856323 403.796753,258.148010 
	C409.092773,258.419647 415.689331,263.848328 417.332397,269.287262 
	C419.817505,277.513580 418.107819,282.196655 410.288513,287.717834 
M396.923950,270.421021 
	C395.191406,272.707947 393.369904,275.073669 395.246063,278.039490 
	C396.642303,280.246552 398.149567,282.929474 401.175049,282.708466 
	C405.369202,282.402069 408.124298,279.889008 409.137268,275.715210 
	C410.140869,271.579926 409.100647,267.939789 405.315948,265.931030 
	C401.318756,263.809479 399.428223,267.329254 396.923950,270.421021 
z"/>
<path fill="#000000" opacity="1.000000" stroke="none" 
	d="
M402.059692,271.303833 
	C404.912720,272.281982 405.968964,274.069794 404.337860,276.317932 
	C403.258545,277.805603 401.085876,277.827423 399.953613,276.375519 
	C398.236542,274.173676 399.228241,272.362671 402.059692,271.303833 
z"/>
</svg>